<svg height="512" viewBox="0 0 64 64" width="512" xmlns="http://www.w3.org/2000/svg"><g id="protect-protection-safe-money-hands"><path d="m61 55v6h-22v-6h3 15z" fill="#2488ff"/><path d="m48.71 21.72-7.64-13.24a4 4 0 0 1 6.93-4l12.46 21.59a3.925 3.925 0 0 1 .54 2v12.37a4.109 4.109 0 0 1 -.15 1.1l-3.85 13.46h-15v-10.52a5.97 5.97 0 0 1 1.76-4.24l.92-.92 2.32-2.32v-12a4.025 4.025 0 0 1 1.17-2.83 5.852 5.852 0 0 1 .54-.45z" fill="#ffc477"/><path d="m57 55h4v6h-4z" fill="#005ece"/><path d="m61 28.07v12.37a4.109 4.109 0 0 1 -.15 1.1l-3.85 13.46h-4l3.85-13.46a4.109 4.109 0 0 0 .15-1.1v-12.37a3.925 3.925 0 0 0 -.54-2l-12.46-21.59a3.933 3.933 0 0 0 -1.46-1.46 3.992 3.992 0 0 1 5.46 1.46l12.46 21.59a3.925 3.925 0 0 1 .54 2z" fill="#ffa733"/><path d="m47 32v5l-2.32 2.32-4.02-2.32a9.966 9.966 0 0 0 1.34-5z" fill="#ffde55"/><path d="m47 26.43v5.57h-5a9.966 9.966 0 0 0 -1.34-5l5.19-2.99a16.255 16.255 0 0 1 1.15 2.42z" fill="#ffd422"/><path d="m45.85 24.01-5.19 2.99a10.036 10.036 0 0 0 -3.66-3.66l2.99-5.19a15.989 15.989 0 0 1 5.86 5.86z" fill="#ffde55"/><path d="m44.68 39.32-.92.92a5.97 5.97 0 0 0 -1.76 4.24 15.058 15.058 0 0 1 -2 1.37l-3-5.19a10.036 10.036 0 0 0 3.66-3.66z" fill="#ffd422"/><path d="m40.66 27a10 10 0 1 1 -3.66-3.66 9.966 9.966 0 0 1 3.66 3.66z" fill="#ffcd00"/><path d="m42 32a10 10 0 0 1 -11.99 9.8 9.91 9.91 0 0 0 2.99-1.14 10 10 0 0 0 0-17.32 9.91 9.91 0 0 0 -2.99-1.14 10 10 0 0 1 11.99 9.8z" fill="#ddb200"/><path d="m37 40.66 3 5.19a15.876 15.876 0 0 1 -8 2.15v-6a9.966 9.966 0 0 0 5-1.34z" fill="#ffde55"/><path d="m39.99 18.15-2.99 5.19a9.966 9.966 0 0 0 -5-1.34v-6a15.812 15.812 0 0 1 7.99 2.15z" fill="#ffd422"/><path d="m32 42v6a15.876 15.876 0 0 1 -8-2.15l3-5.19a9.966 9.966 0 0 0 5 1.34z" fill="#ffd422"/><path d="m32 16v6a9.966 9.966 0 0 0 -5 1.34l-2.99-5.19a15.812 15.812 0 0 1 7.99-2.15z" fill="#ffde55"/><path d="m24.01 18.15 2.99 5.19a10.036 10.036 0 0 0 -3.66 3.66l-5.19-2.99a15.989 15.989 0 0 1 5.86-5.86z" fill="#ffd422"/><path d="m27 40.66-3 5.19a15.058 15.058 0 0 1 -2-1.37 5.97 5.97 0 0 0 -1.76-4.24l-.92-.92 4.02-2.32a10.036 10.036 0 0 0 3.66 3.66z" fill="#ffde55"/><path d="m25 55v6h-22v-6h4 15z" fill="#2488ff"/><path d="m18.15 24.01 5.19 2.99a9.966 9.966 0 0 0 -1.34 5h-5v-5.57a16.255 16.255 0 0 1 1.15-2.42z" fill="#ffde55"/><path d="m23.34 37-4.02 2.32-2.32-2.32v-5h5a9.966 9.966 0 0 0 1.34 5z" fill="#ffd422"/><path d="m15.29 21.72a5.852 5.852 0 0 1 .54.45 4.025 4.025 0 0 1 1.17 2.83v12l2.32 2.32.92.92a5.97 5.97 0 0 1 1.76 4.24v10.52h-15l-3.85-13.46a4.109 4.109 0 0 1 -.15-1.1v-12.37a3.925 3.925 0 0 1 .54-2l12.46-21.59a4 4 0 0 1 6.93 4z" fill="#ffc477"/><path d="m22.93 8.48-7.64 13.24a5.852 5.852 0 0 1 .54.45 4.025 4.025 0 0 1 1.17 2.83v12l3.24 3.24a5.97 5.97 0 0 1 1.76 4.24v10.52h-4v-10.52a5.97 5.97 0 0 0 -1.76-4.24l-3.24-3.24v-12a4.025 4.025 0 0 0 -1.17-2.83 5.852 5.852 0 0 0 -.54-.45l7.64-13.24a4.007 4.007 0 0 0 -1.47-5.46 4 4 0 0 1 5.47 5.46z" fill="#ffa733"/><path d="m32 35a1 1 0 0 1 -1-1h-2a3 3 0 0 0 2 2.816v1.184h2v-1.184a2.993 2.993 0 0 0 -1-5.816 1 1 0 1 1 1-1h2a3 3 0 0 0 -2-2.816v-1.184h-2v1.184a2.993 2.993 0 0 0 1 5.816 1 1 0 0 1 0 2z"/><path d="m62 40.44v-12.37a4.982 4.982 0 0 0 -.67-2.5l-12.46-21.59a5 5 0 0 0 -9.33 2.51 5.067 5.067 0 0 0 .66 2.49l7.23 12.52a5.077 5.077 0 0 0 -1.02 1.52 16.959 16.959 0 0 0 -28.83.01 4.923 4.923 0 0 0 -1.01-1.52l7.23-12.53a5.067 5.067 0 0 0 .66-2.49 5 5 0 0 0 -9.33-2.51l-12.46 21.59a4.982 4.982 0 0 0 -.67 2.5v12.37a4.873 4.873 0 0 0 .19 1.37l3.48 12.19h-2.67a1 1 0 0 0 -1 1v6a1 1 0 0 0 1 1h22a1 1 0 0 0 1-1v-6a1 1 0 0 0 -1-1h-2v-7.6a16.877 16.877 0 0 0 18 0v7.6h-2a1 1 0 0 0 -1 1v6a1 1 0 0 0 1 1h22a1 1 0 0 0 1-1v-6a1 1 0 0 0 -1-1h-2.67l3.48-12.19a4.873 4.873 0 0 0 .19-1.37zm-16-13.81v4.37h-3.05a11.089 11.089 0 0 0 -.97-3.6l3.47-2.01a12.6 12.6 0 0 1 .55 1.24zm0 6.37v3.59l-1.48 1.48-2.54-1.47a11.089 11.089 0 0 0 .97-3.6zm-1.55-9.34-3.47 2a11.406 11.406 0 0 0 -2.64-2.64l2-3.46a15.128 15.128 0 0 1 4.11 4.1zm-11.45-6.62a14.941 14.941 0 0 1 5.61 1.51l-2.01 3.47a11.089 11.089 0 0 0 -3.6-.97zm-2 0v4.01a11.089 11.089 0 0 0 -3.6.97l-2.01-3.47a14.941 14.941 0 0 1 5.61-1.51zm-7.34 2.52 2 3.46a11.406 11.406 0 0 0 -2.64 2.64l-3.47-2a15.128 15.128 0 0 1 4.11-4.1zm-5.66 7.07a12.6 12.6 0 0 1 .55-1.24l3.47 2.01a11.089 11.089 0 0 0 -.97 3.6h-3.05zm0 6.37h3.05a11.089 11.089 0 0 0 .97 3.6l-2.54 1.47-1.48-1.48zm-13.88 8.26a2.805 2.805 0 0 1 -.12-.82v-12.37a3.034 3.034 0 0 1 .4-1.5l12.47-21.59a2.975 2.975 0 0 1 4.09-1.09 2.95 2.95 0 0 1 1.5 2.6 3 3 0 0 1 -.4 1.49l-7.16 12.41a4.928 4.928 0 0 0 -1.9-.39 5 5 0 0 0 -5 5v12h2v-12a3 3 0 0 1 4.69-2.48c.16.12.31.24.43.35a3.03 3.03 0 0 1 .88 2.13v12a1.033 1.033 0 0 0 .29.71l3.24 3.24a4.945 4.945 0 0 1 1.47 3.54v9.51h-13.25zm19.88 14.74v4h-20v-4zm-1.03-12.04a6.981 6.981 0 0 0 -2.02-4.43l2.07-1.19a11.406 11.406 0 0 0 2.64 2.64l-2.01 3.48c-.23-.16-.45-.33-.68-.5zm8.03 3a15.21 15.21 0 0 1 -5.61-1.52l2.01-3.46a11.089 11.089 0 0 0 3.6.97zm-8-14.96a9 9 0 1 1 9 9 9.014 9.014 0 0 1 -9-9zm10 14.96v-4.01a11.089 11.089 0 0 0 3.6-.97l2.01 3.46a15.21 15.21 0 0 1 -5.61 1.52zm7.35-2.5-2.01-3.48a11.406 11.406 0 0 0 2.64-2.64l2.07 1.19a6.981 6.981 0 0 0 -2.02 4.43c-.23.17-.45.34-.68.5zm19.65 11.54v4h-20v-4zm0-15.56a2.805 2.805 0 0 1 -.12.82l-3.63 12.74h-13.25v-9.51a4.945 4.945 0 0 1 1.47-3.54l3.24-3.24a1.033 1.033 0 0 0 .29-.71v-12a2.974 2.974 0 0 1 .86-2.1 4.27 4.27 0 0 1 .42-.36 3.045 3.045 0 0 1 1.72-.54 3.009 3.009 0 0 1 3 3v12h2v-12a4.97 4.97 0 0 0 -6.9-4.61l-7.16-12.4a3.062 3.062 0 0 1 -.4-1.5 2.978 2.978 0 0 1 1.5-2.61 3.047 3.047 0 0 1 2.27-.3 2.986 2.986 0 0 1 1.82 1.4l12.47 21.59a3.034 3.034 0 0 1 .4 1.5z"/></g></svg>