<svg id="Layer_1" enable-background="new 0 0 512 512" height="512" viewBox="0 0 512 512" width="512" xmlns="http://www.w3.org/2000/svg"><g><ellipse cx="256" cy="200" fill="#f3d4b7" rx="240" ry="144"/><path d="m496 200v112c0 79.53-107.45 144-240 144s-240-64.47-240-144v-112c0 79.53 107.45 144 240 144s240-64.47 240-144z" fill="#e1c3a7"/><path d="m433.938 84.457c-47.781-28.668-110.974-44.457-177.938-44.457s-130.157 15.789-177.937 44.457c-50.34 30.203-78.063 71.237-78.063 115.543v112c0 44.306 27.723 85.34 78.063 115.543 47.78 28.668 110.973 44.457 177.937 44.457s130.157-15.789 177.938-44.457c50.339-30.203 78.062-71.237 78.062-115.543v-112c0-44.306-27.723-85.34-78.062-115.543zm-339.412 27.439c42.88-25.727 100.225-39.896 161.474-39.896s118.595 14.169 161.474 39.896c40.321 24.193 62.526 55.482 62.526 88.104s-22.205 63.911-62.526 88.104c-42.879 25.727-100.225 39.896-161.474 39.896s-118.594-14.169-161.474-39.896c-40.32-24.193-62.526-55.482-62.526-88.104s22.206-63.911 62.526-88.104zm289.474 227.007v77.782c-19.659 7.979-41.216 14.013-64 17.942v-79.589c22.462-3.553 43.969-8.971 64-16.135zm-192 16.134v79.589c-22.784-3.929-44.34-9.963-64-17.942v-77.782c20.031 7.165 41.538 12.583 64 16.135zm-160-43.037v-33.766c12.136 13.647 27.566 26.211 46.063 37.309 5.76 3.456 11.75 6.72 17.938 9.797v75.626c-.49-.289-.988-.571-1.474-.863-40.321-24.192-62.527-55.481-62.527-88.103zm192 126.681v-79.903c10.537.806 21.219 1.221 32 1.221s21.463-.415 32-1.221v79.903c-10.508.869-21.191 1.319-32 1.319s-21.492-.451-32-1.319zm256-126.681c0 32.622-22.205 63.911-62.526 88.104-.486.292-.984.574-1.474.863v-75.627c6.188-3.077 12.177-6.341 17.938-9.797 18.496-11.098 33.926-23.662 46.063-37.309v33.766z"/></g></svg>